<svg xmlns="http://www.w3.org/2000/svg" height="1000" width="1000" version="1.1" xmlns:xlink="http://www.w3.org/1999/xlink" xmlns:svgjs="http://svgjs.com/svgjs"><rect fill="#f59e0bff" width="1000" height="1000"></rect><g><path d="M410.37 468.43C399.93 517.16 431.14 557.83 446.02 602.32 464.15 652.34 441.58 652.24 503.96 652.24 566.01 650.61 546.87 653.56 559.17 600.83 579.09 538.04 621.38 499.47 578.48 432.45 530.84 366.84 427.08 387.89 410.37 468.43Z" fill="#6366f1" opacity="1" stroke-width="4" stroke="none"></path><path d="M433.99 468.54C418.1 530.65 471.43 564.71 477.91 636.95 478.62 645.02 485.26 651.29 493.39 651.29H562.66C570.99 651.29 577.7 644.71 578.18 636.41 582.21 561.89 634.46 524.82 617.55 465.42 590.04 368.91 459.1 370.5 433.99 468.54Z" fill="#6366f1" opacity="1" stroke-width="4" stroke="none"></path><path d="M410.37 468.43C399.93 517.16 431.14 557.83 446.02 602.32 464.15 652.34 441.58 652.24 503.96 652.24 566.01 650.61 546.87 653.56 559.17 600.83 579.09 538.04 621.38 499.47 578.48 432.45 530.84 366.84 427.08 387.89 410.37 468.43Z" stroke="#000000" stroke-width="4" stroke-linecap="round" stroke-linejoin="round" opacity="1" fill="none"></path><path d="M461.23 649.12C471.03 651.69 487.02 657.12 502.64 660.23 522.67 664.27 541.95 667.52 541.95 674.09 541.95 684.09 523.65 686.83 505.79 688.09 449.44 692.36 465.84 676.19 502.78 691.78 575.03 721.43 488.48 707.74 484.31 724.42 482.79 735.77 517.55 740 523.96 750" stroke="#000000" stroke-width="4" stroke-linecap="round" stroke-linejoin="round" opacity="1" fill="none"></path><path d="M492.65 650.3C488.34 622.82 486.89 572.09 486.24 534.68 485.06 466.77 457.88 472.84 446.73 489.78 433.51 509.91 471.26 532.85 480.99 533.97 501.36 535.94 542.66 540.55 551.41 521.43 555.27 506.49 552.08 486.33 531.35 490.6 508.44 495.34 516.71 614.76 516.84 646.65" stroke="#000000" stroke-width="4" stroke-linecap="round" stroke-linejoin="round" opacity="1" fill="none"></path><path d="M495.93 330.21C496.85 300.25 497.15 279.96 496.88 250" stroke="#000000" stroke-width="4" stroke-linecap="round" stroke-linejoin="round" opacity="1" fill="none"></path><path d="M645.41 421.06C659.51 419.03 668.11 417.2 690.68 412.32" stroke="#000000" stroke-width="4" stroke-linecap="round" stroke-linejoin="round" opacity="1" fill="none"></path><path d="M635.14 524.65C648.86 525.26 651.68 527.36 668.18 529.8" stroke="#000000" stroke-width="4" stroke-linecap="round" stroke-linejoin="round" opacity="1" fill="none"></path><path d="M309.32 413.81C326.03 415.64 331.65 415.23 353.27 420.32" stroke="#000000" stroke-width="4" stroke-linecap="round" stroke-linejoin="round" opacity="1" fill="none"></path><path d="M390.24 327.47C400.75 339.87 402.03 338.75 412.54 351.15" stroke="#000000" stroke-width="4" stroke-linecap="round" stroke-linejoin="round" opacity="1" fill="none"></path><path d="M617.01 329.02C604.1 338.85 604.07 338.82 591.12 348.64" stroke="#000000" stroke-width="4" stroke-linecap="round" stroke-linejoin="round" opacity="1" fill="none"></path><path d="M331.01 533.16C342.09 531.7 342.05 531.63 353.13 530.18" stroke="#000000" stroke-width="4" stroke-linecap="round" stroke-linejoin="round" opacity="1" fill="none"></path></g></svg>