<svg xmlns="http://www.w3.org/2000/svg" height="1000" width="1000" version="1.1" xmlns:xlink="http://www.w3.org/1999/xlink" xmlns:svgjs="http://svgjs.com/svgjs"><rect fill="transparent" width="1000" height="1000"></rect><g><path d="M451.24 746.76C467.2 660.1 478.3 586.03 497.39 499.92 514.98 413.57 526.01 339.43 544.71 253.24" stroke="#000000" stroke-width="4" stroke-linecap="round" stroke-linejoin="round" opacity="1" fill="none"></path><path d="M355.82 612.94C329.62 586.74 328.29 587.99 302.09 561.79 275.89 535.59 279.02 532.46 252.82 506.18 248.75 502.11 249.22 498.36 253.28 494.29 292.23 454.87 317.58 427.18 355.59 386.83" stroke="#000000" stroke-width="4" stroke-linecap="round" stroke-linejoin="round" opacity="1" fill="none"></path><path d="M641.3 386.83C667.5 413.03 667.11 413.5 693.31 439.7 719.51 465.9 720.22 465.27 746.42 491.47 750.48 495.54 751.42 505.63 747.43 509.7 721.23 535.9 717.32 532.07 691.12 558.27 664.92 584.47 667.27 586.82 640.99 613.02" stroke="#000000" stroke-width="4" stroke-linecap="round" stroke-linejoin="round" opacity="1" fill="none"></path></g></svg>