<svg xmlns="http://www.w3.org/2000/svg" height="1000" width="1000" version="1.1" xmlns:xlink="http://www.w3.org/1999/xlink" xmlns:svgjs="http://svgjs.com/svgjs"><rect fill="transparent" width="1000" height="1000"></rect><g><path d="M701.13 453.29C701.13 453.29 701.13 453.29 701.13 453.29 702.28 468.97 699.22 480.44 688.13 476.62 688.13 476.62 688.13 476.62 688.13 476.62 668.24 466.67 667.48 464.38 687.36 454.44 691.19 452.14 696.16 451.76 701.13 453.29Z" fill="#f3c259" opacity="1" stroke-width="4" stroke="none"></path><path d="M640.71 373.75C641.09 373.75 641.09 373.75 641.09 374.13 643 392.1 637.27 424.99 620.82 416.2 613.17 412.37 608.2 401.28 612.41 391.72 618.15 381.01 628.85 375.28 640.71 373.75Z" fill="#f3c259" opacity="1" stroke-width="4" stroke="none"></path><path d="M332.49 465.53C370.73 464.38 369.96 490.38 346.63 488.47 337.07 487.71 324.07 486.56 314.13 479.29 314.13 479.29 314.13 479.29 314.13 479.29 312.22 477.76 310.31 476.23 308.39 474.7 308.39 474.7 308.39 474.32 308.39 474.32 314.51 468.59 322.54 465.14 332.49 465.53Z" fill="#f3c259" opacity="1" stroke-width="4" stroke="none"></path><path d="M275.12 516.77C275.12 516.77 275.12 516.77 275.12 516.77 292.33 512.18 295.77 513.71 311.84 519.45 312.22 519.45 312.6 519.06 312.22 518.68 296.54 507.97 296.16 486.18 308.39 473.94 308.39 473.94 308.78 473.94 308.78 473.94L308.78 473.56C308.78 473.56 308.39 473.56 308.39 473.56 294.24 459.79 291.19 438.76 296.16 416.58 296.16 416.58 296.16 416.58 296.16 416.58 301.89 357.3 368.81 342.01 408.2 382.93 408.59 383.31 408.59 382.93 408.97 382.93 412.41 369.54 425.41 358.45 441.09 351.19 452.94 345.45 466.71 342.39 479.33 342.01 490.42 341.63 500.36 343.54 507.63 348.51 516.81 355.39 518.72 363.81 518.34 372.22 517.57 386.37 510.31 400.52 519.1 406.64 519.1 406.64 519.1 406.64 519.1 406.64 529.04 411.99 546.25 402.05 553.14 389.81 556.2 384.46 557.34 378.72 555.05 373.37 555.05 373.37 555.05 373.37 555.05 373.37 554.28 371.45 553.9 369.54 553.52 368.01 553.52 368.01 553.52 368.01 553.52 368.01 544.34 321.74 610.88 305.68 634.21 351.19 636.5 355.77 638.41 361.13 639.94 366.86 639.94 366.86 639.94 366.86 639.94 366.86 640.71 368.39 641.09 370.31 641.47 372.6 641.47 372.98 641.47 373.37 641.47 373.75 641.47 374.13 641.47 374.13 641.09 374.13L641.47 374.51C641.47 374.13 641.47 374.13 641.85 374.13 659.83 372.6 680.48 381.4 688.89 401.66 693.48 410.46 699.98 434.17 701.51 452.91 701.51 453.29 701.13 453.29 701.13 453.29L701.51 454.05C701.51 453.67 701.89 453.67 701.89 453.67 711.07 456.35 720.63 464 726.75 475.09 740.9 498.03 730.19 538.57 703.42 552.33 703.42 552.33 703.42 552.33 703.42 552.33 688.13 563.04 652.94 572.22 633.82 572.6 630.38 572.6 627.71 572.6 625.79 572.22 625.79 572.22 625.79 572.22 625.79 572.22 615.09 571.45 650.65 601.66 599.79 620.78 595.2 622.7 590.61 624.23 586.02 625.37 581.43 626.52 576.46 627.67 571.49 628.05 556.96 629.96 541.66 629.58 527.51 627.67 516.42 626.14 505.72 623.84 496.54 621.55 496.54 621.55 496.54 621.55 496.54 621.55 493.48 620.78 491.57 621.93 490.42 624.23 490.42 624.23 490.42 624.23 490.42 624.23 487.36 628.81 486.6 639.14 482.01 649.85 462.5 695.74 389.46 674.7 371.49 640.67 360.4 621.93 356.58 657.11 327.9 650.99 310.31 647.55 292.33 635.7 278.18 620.4 267.48 608.93 258.3 595.55 253.33 582.93 244.91 561.13 252.56 520.98 275.12 516.77 274.74 516.77 274.74 516.77 275.12 516.77 274.74 516.77 274.74 516.77 275.12 516.77Z" fill="#f3c259" opacity="1" stroke-width="4" stroke="none"></path><path d="M717.57 453.29C717.19 452.91 717.19 452.91 717.57 453.29 715.28 421.55 698.07 369.54 657.92 374.9 652.56 304.15 554.28 312.18 569.58 373.75 577.23 390.96 549.69 413.52 535.55 405.87 521.4 398.22 549.69 369.54 523.31 348.89 496.92 327.86 428.85 357.69 424.65 384.07 374.17 340.1 319.48 361.13 311.45 416.96 307.63 444.88 314.51 462.08 325.6 473.17 311.84 486.18 313.37 510.27 327.51 520.21 327.9 520.59 327.51 520.98 327.13 520.98 314.13 516.77 273.98 507.21 266.33 547.74 257.53 595.93 314.51 646.41 343.19 652.52 371.87 658.64 377.23 621.17 388.32 639.9 399.41 658.64 433.44 685.03 473.21 672.79 512.98 660.55 498.07 616.58 512.98 620.02 527.9 623.46 565.37 639.9 615.85 620.02 666.33 600.13 630 569.54 642.24 572.98S730.96 566.48 746.64 522.51C758.49 486.94 736.69 458.64 717.57 453.29Z" fill="#6366f1" opacity="1" stroke-width="4" stroke="none"></path><path d="M398.26 555.39C427.71 572.22 457.92 596.31 483.92 618.87 485.83 620.4 488.13 621.93 490.04 623.46 507.25 636.08 525.6 652.14 535.93 666.67 535.93 666.67 536.31 667.06 536.31 667.44" stroke="#000000" stroke-width="4" stroke-linecap="round" stroke-linejoin="round" opacity="1" fill="none"></path><path d="M467.48 521.74C487.36 554.63 507.63 594.4 527.51 627.29 527.9 628.05 528.66 629.2 529.04 629.96 540.13 650.99 537.46 649.47 545.49 665.53 545.87 666.29 546.25 667.06 546.63 667.44" stroke="#000000" stroke-width="4" stroke-linecap="round" stroke-linejoin="round" opacity="1" fill="none"></path><path d="M506.48 522.12C529.43 554.63 551.61 591.72 571.11 627.29 576.85 637.99 582.58 648.32 587.55 658.64" stroke="#000000" stroke-width="4" stroke-linecap="round" stroke-linejoin="round" opacity="1" fill="none"></path><path d="M535.16 454.05C545.49 491.91 560.4 537.8 569.2 577.57 574.93 594.78 580.29 610.08 585.64 624.99 589.46 636.08 593.67 646.79 597.88 658.26" stroke="#000000" stroke-width="4" stroke-linecap="round" stroke-linejoin="round" opacity="1" fill="none"></path><path d="M635.74 507.59C632.29 525.95 632.29 550.8 633.82 572.22 634.21 574.9 634.21 577.19 634.59 579.87 635.35 592.49 634.97 605.11 635.74 616.2 637.27 637.23 639.18 634.17 640.71 652.14" stroke="#000000" stroke-width="4" stroke-linecap="round" stroke-linejoin="round" opacity="1" fill="none"></path><path d="M308.39 473.94C314.13 468.59 322.16 465.14 332.49 465.53 370.73 464.38 369.96 490.38 346.63 488.47 337.07 487.71 324.07 486.56 314.13 478.91 312.22 477.38 310.31 475.85 308.39 473.94Z" stroke="#000000" stroke-width="4" stroke-linecap="round" stroke-linejoin="round" opacity="1" fill="none"></path><path d="M701.13 453.29C710.31 455.58 720.25 463.61 726.75 474.7 740.9 497.65 730.19 538.18 703.42 551.95 688.13 562.66 652.94 571.84 633.82 572.22 630.38 572.22 627.71 572.22 625.41 571.84 614.32 571.07 650.27 601.28 599.41 620.4 594.82 622.31 590.23 623.84 585.64 624.99 581.05 626.14 576.08 627.29 571.11 627.67 556.58 629.58 541.28 629.2 527.13 627.29 516.04 625.76 505.33 623.46 496.16 621.17 493.1 620.4 491.19 621.55 490.04 623.84 486.98 628.43 486.21 638.76 481.63 649.47 462.12 695.35 389.08 674.32 371.11 640.29 360.02 621.55 356.2 656.73 327.51 650.61 309.92 647.17 291.95 635.32 277.8 620.02 267.09 608.55 257.92 595.16 252.94 582.54 245.3 561.51 252.94 521.36 275.12 517.53 275.12 517.53 275.12 517.53 275.51 517.53 293.86 512.94 296.54 514.86 316.04 521.36 296.92 511.8 296.16 487.32 309.16 474.32" stroke="#000000" stroke-width="4" stroke-linecap="round" stroke-linejoin="round" opacity="1" fill="none"></path><path d="M701.13 453.29C701.89 468.59 699.22 480.44 687.74 476.23 667.86 466.29 667.09 464 686.98 454.05 691.19 452.14 696.16 451.76 701.13 453.29Z" stroke="#000000" stroke-width="4" stroke-linecap="round" stroke-linejoin="round" opacity="1" fill="none"></path><path d="M641.09 373.75C659.45 371.84 680.1 381.01 688.51 401.28 693.1 410.08 699.98 434.17 701.13 452.91" stroke="#000000" stroke-width="4" stroke-linecap="round" stroke-linejoin="round" opacity="1" fill="none"></path><path d="M641.09 373.75C643 391.72 637.27 424.99 621.2 416.2 613.56 412.37 608.59 401.28 612.79 391.72 618.15 381.01 628.85 374.9 641.09 373.75Z" stroke="#000000" stroke-width="4" stroke-linecap="round" stroke-linejoin="round" opacity="1" fill="none"></path><path d="M308.39 473.94C294.24 460.17 290.8 439.14 295.77 416.58 301.51 356.92 368.81 341.63 408.2 383.31 411.26 369.92 424.26 358.45 440.33 350.8 452.18 345.07 465.95 342.01 478.57 341.63 489.66 341.24 499.6 343.16 506.86 348.13 516.04 355.01 517.95 363.42 517.57 371.84 516.81 385.98 509.54 400.13 518.34 406.25 528.28 411.61 545.49 401.66 552.37 389.43 555.43 384.07 556.58 378.34 554.28 372.98 553.52 371.07 553.14 369.16 552.75 367.63 543.58 321.36 610.11 305.3 633.44 350.8 635.74 355.39 637.65 360.75 639.18 366.48 639.94 368.01 640.33 369.92 640.71 372.22 640.71 372.6 640.71 373.37 641.09 374.13" stroke="#000000" stroke-width="4" stroke-linecap="round" stroke-linejoin="round" opacity="1" fill="none"></path><path d="M518.34 371.84C532.87 376.42 536.31 378.34 551.99 389.04" stroke="#000000" stroke-width="4" stroke-linecap="round" stroke-linejoin="round" opacity="1" fill="none"></path></g></svg>